<svg width="164" height="40" viewBox="0 0 164 40" fill="none" xmlns="http://www.w3.org/2000/svg">
<g clip-path="url(#clip0_185:4203)">
<path d="M10.3952 19.5293C10.9825 19.0037 11.2762 18.3024 11.2762 17.4253V17.3665C11.2762 16.3926 10.9681 15.6618 10.3521 15.1743C9.73603 14.6867 8.87831 14.4433 7.77893 14.4438H3.35938V20.3229H7.86878C8.96582 20.32 9.80797 20.0554 10.3952 19.5293Z" fill="#454F5B"/>
<path d="M31.195 30.839V22.6261H22.9866V30.839H18.5345V10.379H22.9866V18.476H31.195V10.379H34.6861C32.9806 7.23574 30.4711 4.61379 27.42 2.78747C24.369 0.961136 20.8886 -0.00244141 17.343 -0.00244141C13.7975 -0.00244141 10.3171 0.961136 7.26604 2.78747C4.215 4.61379 1.70545 7.23574 0 10.379H8.33171C10.8946 10.379 12.8602 11.0708 14.2286 12.4544C15.3843 13.6243 15.9622 15.1835 15.9622 17.1319V17.1898C15.9622 18.8466 15.5626 20.1961 14.7633 21.2383C13.9541 22.2877 12.8669 23.0831 11.6281 23.5321L16.5709 30.8364H11.3638L7.02795 24.2892H3.53424V30.8364H0.725875C2.51727 33.6465 4.97703 35.9574 7.88006 37.5577C10.7831 39.158 14.0367 39.9965 17.343 39.9965C20.6494 39.9965 23.903 39.158 26.806 37.5577C29.709 35.9574 32.1688 33.6465 33.9602 30.8364L31.195 30.839Z" fill="#454F5B"/>
<path d="M163.489 22.9089H44.7188V23.3713H163.489V22.9089Z" fill="#454F5B"/>
<path d="M67.8368 5.89145L70.3377 12.0262H65.3561L67.8368 5.89145ZM66.4546 1.65674L59.2461 19.1434H62.5266L64.1775 15.0397H71.5181L73.1443 19.1434H76.5173L69.3088 1.65674H66.4546Z" fill="#454F5B"/>
<path d="M89.7954 10.4862C89.7954 13.8186 87.6301 16.0571 84.4086 16.0571H81.4276V4.86459H84.4086C87.5799 4.86459 89.7954 7.17614 89.7954 10.4862ZM84.4086 1.77808H78.2422V19.1481H84.4086C89.4527 19.1481 93.1138 15.4861 93.1138 10.4408C93.1138 5.42311 89.4527 1.78253 84.4086 1.78253" fill="#454F5B"/>
<path d="M143.349 10.4843C143.349 13.8131 141.102 16.3242 138.123 16.3242C135.116 16.3242 132.85 13.7935 132.85 10.4362C132.85 7.10741 135.097 4.59722 138.077 4.59722C141.083 4.59722 143.349 7.12879 143.349 10.4843ZM138.123 1.48755C133.226 1.48755 129.531 5.35616 129.531 10.4843C129.531 15.5875 133.206 19.4348 138.076 19.4348C142.974 19.4348 146.667 15.5662 146.667 10.438C146.667 5.33567 142.994 1.48844 138.122 1.48844" fill="#454F5B"/>
<path d="M54.9603 7.52256C54.9603 9.17672 53.7658 10.2047 51.8418 10.2047H47.8989V4.86451H51.8198C53.8459 4.86451 54.9603 5.80783 54.9603 7.52256ZM58.188 7.35154C58.188 3.91406 55.8359 1.7771 52.0489 1.7771H44.7188V19.1471H47.8989V13.2181H51.1494L55.0915 19.1435H58.853L54.4678 12.6267C56.8692 11.8357 58.188 9.9704 58.188 7.35243" fill="#454F5B"/>
<path d="M98.9349 1.77808H95.7539V19.1436H98.9349V1.77808Z" fill="#454F5B"/>
<path d="M108.695 8.92384C105.583 8.13551 105.029 7.57789 105.029 6.40475C105.029 5.29485 106.005 4.54838 107.46 4.54838C108.858 4.54838 110.247 5.10868 111.702 6.25777L111.855 6.37891L113.568 3.82241L113.443 3.71551C111.719 2.24842 109.776 1.53491 107.506 1.53491C104.174 1.53491 101.847 3.64782 101.847 6.67287C101.847 9.91438 103.856 11.0617 107.325 11.9498C110.305 12.6793 110.809 13.294 110.809 14.3949C110.809 15.6153 109.789 16.3725 108.147 16.3725C106.335 16.3725 104.856 15.7258 103.205 14.2114L103.063 14.0796L101.141 16.5007L101.264 16.6165C103.179 18.4284 105.535 19.3868 108.078 19.3868C111.668 19.3868 113.989 17.3131 113.989 14.1028C113.989 11.3931 112.455 9.893 108.695 8.92384Z" fill="#454F5B"/>
<path d="M122.559 8.92384C119.446 8.13551 118.892 7.57789 118.892 6.40475C118.892 5.29485 119.869 4.54838 121.323 4.54838C122.722 4.54838 124.109 5.10868 125.565 6.25777L125.718 6.37891L127.431 3.82241L127.307 3.71551C125.582 2.24842 123.64 1.53491 121.369 1.53491C118.037 1.53491 115.71 3.64782 115.71 6.67287C115.71 9.91438 117.719 11.0617 121.188 11.9498C124.168 12.6793 124.671 13.294 124.671 14.3949C124.671 15.6153 123.652 16.3725 122.011 16.3725C120.2 16.3725 118.72 15.7258 117.068 14.2114L116.926 14.0796L115.004 16.5007L115.127 16.6165C117.041 18.4284 119.398 19.3868 121.941 19.3868C125.533 19.3868 127.852 17.3131 127.852 14.1028C127.852 11.3931 126.318 9.893 122.559 8.92384Z" fill="#454F5B"/>
<path d="M160.354 1.77881V13.1593L152.088 1.85274L152.033 1.77881H149.148V19.1444H152.283V7.42361L160.801 19.0695L160.856 19.1444H163.488V1.77881H160.354Z" fill="#454F5B"/>
<path d="M163.482 22.8945H44.7266V23.356H163.482V22.8945Z" fill="#454F5B"/>
<path d="M44.6445 27.0437H46.6231V31.7773H51.9967V27.0437H53.9752V38.4313H51.9967V33.6292H46.6231V38.4286H44.6445V27.0437Z" fill="#454F5B"/>
<path d="M65.9805 32.7697V32.7385C65.9805 29.5317 68.4259 26.8496 71.8826 26.8496C75.3393 26.8496 77.7548 29.5014 77.7548 32.7055V32.7385C77.7548 35.9452 75.3094 38.6273 71.8526 38.6273C68.3959 38.6273 65.9805 35.9746 65.9805 32.7697ZM75.6811 32.7697V32.7385C75.6811 30.5258 74.0884 28.7042 71.8526 28.7042C69.6169 28.7042 68.0559 30.4937 68.0559 32.7055V32.7385C68.0559 34.9511 69.6486 36.7728 71.8844 36.7728C74.1201 36.7728 75.6776 34.9823 75.6776 32.7697H75.6811Z" fill="#454F5B"/>
<path d="M92.759 28.8983H89.1719V27.0437H98.3255V28.8983H94.7375V38.4295H92.759V28.8983Z" fill="#454F5B"/>
<path d="M111.818 27.0437H120.167V28.8333H113.797V31.7942H119.443V33.5998H113.797V36.6417H120.247V38.4313H111.816L111.818 27.0437Z" fill="#454F5B"/>
<path d="M135.043 27.0437H137.022V36.6088H142.942V38.4313H135.043V27.0437Z" fill="#454F5B"/>
<path d="M155.031 36.7717L156.222 35.3403C157.3 36.2836 158.394 36.8207 159.778 36.8207C160.999 36.8207 161.772 36.2346 161.772 35.3892V35.3563C161.772 34.543 161.322 34.1039 159.231 33.6157C156.834 33.0305 155.481 32.3143 155.481 30.2157V30.1836C155.481 28.231 157.091 26.8806 159.327 26.8806C160.968 26.8806 162.271 27.3857 163.413 28.313L162.351 29.8273C161.338 29.063 160.325 28.6559 159.295 28.6559C158.136 28.6559 157.461 29.2581 157.461 30.0063V30.0384C157.461 30.9167 157.975 31.3077 160.147 31.828C162.525 32.4141 163.751 33.2754 163.751 35.163V35.1951C163.751 37.3267 162.094 38.5951 159.729 38.5951C157.993 38.603 156.316 37.9524 155.031 36.7717Z" fill="#454F5B"/>
</g>
<defs>
<clipPath id="clip0_185:4203">
<rect width="163.75" height="40" fill="white"/>
</clipPath>
</defs>
</svg>
