<?xml version="1.0" encoding="utf-8"?><svg viewBox="0 0 576 512" xmlns="http://www.w3.org/2000/svg" xmlns:xlink="http://www.w3.org/1999/xlink"><style>:root>svg{display:none}:root>svg:target{display:block}</style><svg aria-hidden="true" data-prefix="fas" data-icon="chevron-left" class="asvg-inline--fa afa-chevron-left afa-w-10" viewBox="0 0 320 512" id="arrow-left" xmlns="http://www.w3.org/2000/svg"><path d="M34.52 239.03L228.87 44.69c9.37-9.37 24.57-9.37 33.94 0l22.67 22.67c9.36 9.36 9.37 24.52.04 33.9L131.49 256l154.02 154.75c9.34 9.38 9.32 24.54-.04 33.9l-22.67 22.67c-9.37 9.37-24.57 9.37-33.94 0L34.52 272.97c-9.37-9.37-9.37-24.57 0-33.94z"/></svg><svg aria-hidden="true" data-prefix="fas" data-icon="chevron-right" class="bsvg-inline--fa bfa-chevron-right bfa-w-10" viewBox="0 0 320 512" id="arrow-right" xmlns="http://www.w3.org/2000/svg"><path d="M285.476 272.971L91.132 467.314c-9.373 9.373-24.569 9.373-33.941 0l-22.667-22.667c-9.357-9.357-9.375-24.522-.04-33.901L188.505 256 34.484 101.255c-9.335-9.379-9.317-24.544.04-33.901l22.667-22.667c9.373-9.373 24.569-9.373 33.941 0L285.475 239.03c9.373 9.372 9.373 24.568.001 33.941z"/></svg><svg viewBox="0 0 46 33" id="corb" xmlns="http://www.w3.org/2000/svg"><path d="M44.552 7.006a2.69 2.69 0 00-2.017-.891H13.023l-.287-1.4c-.182-.893-.873-1.618-1.797-1.888l-7.54-2.2C2.016.226.547.953.119 2.253c-.43 1.3.344 2.68 1.726 3.084l6.04 1.762L12.49 26.09c.16.803.724 1.454 1.472 1.781-.022.169-.035.34-.035.515 0 2.302 1.992 4.174 4.44 4.174 2.448 0 4.44-1.872 4.44-4.174a3.97 3.97 0 00-.012-.286h7.009c-.007.095-.012.19-.012.286 0 2.302 1.992 4.174 4.44 4.174 2.448 0 4.44-1.872 4.44-4.174 0-.103-.006-.205-.014-.306 1.122-.128 2.047-.923 2.26-1.99l4.194-17.056a2.36 2.36 0 00-.56-2.028zM18.366 30.419c-1.192 0-2.162-.912-2.162-2.033 0-1.122.97-2.034 2.162-2.034s2.162.912 2.162 2.034c0 1.12-.97 2.033-2.162 2.033zm15.865 0c-1.193 0-2.163-.912-2.163-2.033 0-1.122.97-2.034 2.163-2.034 1.192 0 2.162.912 2.162 2.034 0 1.12-.97 2.033-2.162 2.033zm1.523-8.458H17.79c-.869 0-1.573-.662-1.573-1.479 0-.817.704-1.479 1.573-1.479h17.964c.869 0 1.573.662 1.573 1.48 0 .816-.704 1.478-1.573 1.478zm0-7.887H17.79c-.869 0-1.573-.663-1.573-1.48 0-.816.704-1.478 1.573-1.478h17.964c.869 0 1.573.662 1.573 1.479 0 .816-.704 1.478-1.573 1.478z"/></svg><svg aria-hidden="true" data-prefix="far" data-icon="eye" class="dsvg-inline--fa dfa-eye dfa-w-18" viewBox="0 0 576 512" id="eye" xmlns="http://www.w3.org/2000/svg"><path d="M288 144a110.94 110.94 0 00-31.24 5 55.4 55.4 0 017.24 27 56 56 0 01-56 56 55.4 55.4 0 01-27-7.24A111.71 111.71 0 10288 144zm284.52 97.4C518.29 135.59 410.93 64 288 64S57.68 135.64 3.48 241.41a32.35 32.35 0 000 29.19C57.71 376.41 165.07 448 288 448s230.32-71.64 284.52-177.41a32.35 32.35 0 000-29.19zM288 400c-98.65 0-189.09-55-237.93-144C98.91 167 189.34 112 288 112s189.09 55 237.93 144C477.1 345 386.66 400 288 400z"/></svg><svg viewBox="0 0 50 50" id="facebook" xmlns="http://www.w3.org/2000/svg"><path d="M9 4C6.25 4 4 6.25 4 9v32c0 2.75 2.25 5 5 5h16.832c.107.018.219.018.326 0h5.674c.107.018.219.018.326 0H41c2.75 0 5-2.25 5-5V9c0-2.75-2.25-5-5-5H9zm0 2h32c1.668 0 3 1.332 3 3v32c0 1.668-1.332 3-3 3h-8V30h3.82l1.4-7H33v-2c0-.557.053-.602.24-.723.188-.12.766-.277 1.76-.277h3v-5.63l-.57-.272S35.133 13 32 13c-2.25 0-4.098.896-5.281 2.375C25.535 16.854 25 18.834 25 21v2h-3v7h3v14H9c-1.668 0-3-1.332-3-3V9c0-1.668 1.332-3 3-3zm23 9c2.078 0 3.387.459 4 .701V18h-1c-1.15 0-2.072.096-2.85.6-.777.503-1.15 1.46-1.15 2.4v4h4.78l-.6 3H31v16h-4V28h-3v-3h3v-4c0-1.834.465-3.354 1.281-4.375C29.098 15.604 30.25 15 32 15z"/></svg><svg viewBox="0 0 50 50" id="instagram" xmlns="http://www.w3.org/2000/svg"><path d="M16 3C8.832 3 3 8.832 3 16v18c0 7.168 5.832 13 13 13h18c7.168 0 13-5.832 13-13V16c0-7.168-5.832-13-13-13H16zm0 2h18c6.086 0 11 4.914 11 11v18c0 6.086-4.914 11-11 11H16C9.914 45 5 40.086 5 34V16C5 9.914 9.914 5 16 5zm21 6a1.999 1.999 0 100 4 1.999 1.999 0 100-4zm-12 3c-6.063 0-11 4.938-11 11 0 6.063 4.938 11 11 11 6.063 0 11-4.938 11-11 0-6.063-4.938-11-11-11zm0 2c4.982 0 9 4.018 9 9s-4.018 9-9 9-9-4.018-9-9 4.018-9 9-9z"/></svg><svg aria-hidden="true" data-prefix="fas" data-icon="sign-in-alt" class="gsvg-inline--fa gfa-sign-in-alt gfa-w-16" viewBox="0 0 512 512" id="login" xmlns="http://www.w3.org/2000/svg"><path d="M416 448h-84c-6.6 0-12-5.4-12-12v-40c0-6.6 5.4-12 12-12h84c17.7 0 32-14.3 32-32V160c0-17.7-14.3-32-32-32h-84c-6.6 0-12-5.4-12-12V76c0-6.6 5.4-12 12-12h84c53 0 96 43 96 96v192c0 53-43 96-96 96zm-47-201L201 79c-15-15-41-4.5-41 17v96H24c-13.3 0-24 10.7-24 24v96c0 13.3 10.7 24 24 24h136v96c0 21.5 26 32 41 17l168-168c9.3-9.4 9.3-24.6 0-34z"/></svg><svg viewBox="0 0 38 38" id="search" xmlns="http://www.w3.org/2000/svg"><path d="M15.933.6C7.483.6.6 7.482.6 15.932s6.883 15.333 15.333 15.333c3.675 0 7.05-1.305 9.695-3.47l9.155 9.154a1.533 1.533 0 102.168-2.168l-9.155-9.155a15.252 15.252 0 003.47-9.694c0-8.45-6.882-15.334-15.333-15.334zm0 3.066A12.243 12.243 0 0128.2 15.933 12.244 12.244 0 0115.933 28.2 12.244 12.244 0 013.667 15.933 12.243 12.243 0 0115.933 3.666z"/></svg><svg viewBox="0 0 41 44" id="urn" xmlns="http://www.w3.org/2000/svg"><path d="M16.635.417a1.656 1.656 0 00-1.583 2.208h-4.887A6.06 6.06 0 005.112 5.33L2.498 9.25H2.28a1.656 1.656 0 100 3.313h36.438a1.656 1.656 0 100-3.313H38.5l-2.614-3.92a6.062 6.062 0 00-5.053-2.705h-4.886A1.657 1.657 0 0024.364.417h-7.73zM3.906 15.875l2.377 22.178a6.061 6.061 0 006.038 5.426h16.356a6.063 6.063 0 006.038-5.426l2.377-22.178H3.906z"/></svg><svg viewBox="0 0 38 38" id="user" xmlns="http://www.w3.org/2000/svg"><path d="M23.6 25.133v-3.066c.69-.342 2.663-2.691 2.87-4.527.543-.041 1.396-.54 1.647-2.507.135-1.056-.401-1.65-.727-1.837 0 0 .81-1.538.81-3.394 0-3.723-1.461-6.9-4.6-6.9 0 0-1.09-2.3-4.6-2.3-6.504 0-9.2 4.172-9.2 9.2 0 1.692.81 3.394.81 3.394-.325.187-.862.782-.727 1.837.251 1.967 1.104 2.466 1.647 2.507.207 1.836 2.18 4.185 2.87 4.527v3.066C12.867 29.733.6 26.667.6 37.4h36.8c0-10.733-12.267-7.667-13.8-12.267z"/></svg><svg viewBox="0 0 50 50" id="viber" xmlns="http://www.w3.org/2000/svg"><path d="M24.426 3a35.6 35.6 0 00-4.11.258c-2.636.324-5.25.863-7.757 2.015-3.988 1.833-6.816 4.942-7.637 9.461a59.516 59.516 0 00-.789 5.786c-.308 3.777-.117 7.566.953 11.289.844 2.933 2.399 5.57 5.121 7.28 1.153.724 2.672 1.075 3.465 1.442.223.106.278.168.29.184.011.012.042.039.039.273-.028 2.39 0 7.016 0 7.016l.003.996h1.786l.289-.281s4.535-4.364 6.175-6.16c.297-.32.45-.5.48-.52.028-.02-.019-.031.286-.039 2.152-.043 4.3-.125 6.45-.242 2.831-.156 5.718-.426 8.495-1.586 2.418-1.012 4.438-2.664 5.66-5.14 1.25-2.54 1.919-5.231 2.169-8.016.414-4.637.269-9.282-1.012-13.86-.754-2.683-2.27-4.953-4.594-6.554-2.781-1.914-5.918-2.633-8.988-3.09a46.483 46.483 0 00-5.41-.496c-.454-.012-.907-.02-1.364-.016zm1.309 2.016c1.723.047 3.445.215 5.172.472 2.96.442 5.754 1.114 8.148 2.762 1.942 1.336 3.153 3.14 3.801 5.441 1.195 4.282 1.348 8.668.945 13.149-.23 2.582-.843 5.015-1.972 7.308-.996 2.024-2.551 3.31-4.637 4.18-2.422 1.012-5.055 1.281-7.828 1.434-2.125.117-4.254.195-6.383.238-.535.012-1.059.152-1.43.426-.37.273-.539.527-.77.777-1.171 1.281-3.507 3.535-4.78 4.77-.008-1.492-.02-3.297 0-4.961.007-.512-.11-1.035-.403-1.45-.293-.413-.695-.663-1.082-.843-1.129-.524-2.605-.922-3.246-1.324-2.238-1.407-3.508-3.516-4.262-6.141-.988-3.434-1.175-6.969-.883-10.567.157-1.867.426-3.738.766-5.593.711-3.91 2.945-6.371 6.5-8.004 2.246-1.031 4.645-1.54 7.172-1.848a34.192 34.192 0 015.172-.226zM26.157 10c-.825 0-1.625.094-2.403.266-.535.125-.875.66-.754 1.199.122.539.66.875 1.2.754A8.739 8.739 0 0126.157 12a8.805 8.805 0 018.82 8.816c0 .676-.074 1.332-.219 1.965a1 1 0 00.754 1.196 1.001 1.001 0 001.196-.758c.175-.774.27-1.574.27-2.403 0-5.96-4.856-10.816-10.821-10.816zm-9.977 2.004a1.904 1.904 0 00-.508.043c-1.816.402-3.62 1.719-3.671 4.07.05.328.046.68.168.977.593 1.453 1.109 2.953 1.851 4.328 3.613 6.68 9.078 11.324 16.043 14.273.832.352 1.691.426 2.531.075 1.157-.48 2.137-1.223 2.79-2.29.894-1.464.906-2.48-.567-3.562-.965-.71-1.914-1.441-2.89-2.137-1.489-1.054-3.098-1.238-4.208.614-.058.093-.144.171-.219.25-.57.605-1.269.753-2.011.449-2.817-1.16-4.992-3.032-6.305-5.817-.773-1.636-.562-2.457.883-3.547.144-.105.281-.218.414-.34.633-.578.8-1.265.426-2.042a15.99 15.99 0 00-3.407-4.72c-.386-.366-.828-.597-1.32-.624zm9.961.996c-.441 0-.879.035-1.308.11a1.003 1.003 0 00-.637 1.64c.238.277.613.406.973.328.312-.05.64-.078.972-.078 3.25 0 5.86 2.61 5.86 5.86 0 .331-.028.66-.079.972-.078.36.051.734.329.973a1.003 1.003 0 001.64-.637c.074-.43.11-.867.11-1.309C34 16.531 30.469 13 26.14 13zm-.14 3a1.006 1.006 0 00-.88.496 1.01 1.01 0 000 1.008c.184.312.52.5.88.496 1.668 0 3 1.332 3 3-.004.36.183.695.496.879.312.18.695.18 1.007 0 .313-.184.5-.52.496-.879 0-2.75-2.25-5-5-5z"/></svg><svg viewBox="0 0 50 50" id="whatsapp" xmlns="http://www.w3.org/2000/svg"><path d="M25 2C12.31 2 2 12.31 2 25c0 4.08 1.118 7.885 2.984 11.208L2.038 46.731a1 1 0 001.203 1.24l10.97-2.72C17.435 46.973 21.092 48 25 48c12.69 0 23-10.31 23-23S37.69 2 25 2zm0 2c11.61 0 21 9.39 21 21s-9.39 21-21 21c-3.721 0-7.208-.97-10.238-2.667a1.008 1.008 0 00-.73-.097l-9.606 2.381L7 36.426a.998.998 0 00-.099-.78A20.88 20.88 0 014 25C4 13.39 13.39 4 25 4zm-8.357 9c-.642 0-1.557.238-2.308 1.05-.452.485-2.335 2.32-2.335 5.544 0 3.362 2.332 6.261 2.613 6.635h.003v.002a31.652 31.652 0 003.004 3.684c1.803 1.898 4.338 4.093 7.485 5.435 1.45.616 2.593.99 3.46 1.262 1.604.504 3.066.427 4.165.266.822-.121 1.727-.517 2.622-1.084.894-.565 1.772-1.27 2.158-2.338a8.355 8.355 0 00.47-2.059c.024-.291.028-.55.008-.788s.002-.42-.22-.785c-.466-.764-.993-.784-1.543-1.056-.306-.152-1.177-.577-2.05-.992-.872-.417-1.625-.784-2.09-.95-.295-.106-.654-.258-1.17-.198-.518.058-1.03.43-1.326.872-.283.418-1.418 1.758-1.765 2.152-.005-.002.026.01-.11-.056-.429-.212-.952-.393-1.727-.802a14.172 14.172 0 01-2.805-1.946v-.003c-1.58-1.39-2.685-3.134-3.034-3.72.024-.027-.002.006.047-.043l.003-.003c.355-.35.672-.77.939-1.078.379-.435.545-.82.726-1.18.361-.714.16-1.502-.048-1.917v-.002c.014.029-.113-.252-.25-.576-.138-.325-.314-.747-.5-1.196-.375-.897-.793-1.905-1.042-2.496v-.001c-.293-.695-.688-1.195-1.207-1.438-.518-.242-.975-.173-.993-.174h-.003c-.37-.017-.774-.021-1.177-.021zm0 2c.386 0 .766.005 1.084.02.328.017.307.018.244-.012-.065-.03.023-.04.209.402.243.578.664 1.589 1.039 2.491.187.45.363.872.504 1.204.14.332.216.517.304.694v.002l.003.002c.086.171.078.062.048.121-.21.418-.24.521-.453.767-.326.375-.656.792-.832.965-.154.151-.431.386-.603.847-.174.46-.092 1.092.185 1.563.37.628 1.59 2.614 3.484 4.282a16.388 16.388 0 003.193 2.217c.89.468 1.612.741 1.774.822.385.19.804.338 1.293.28.49-.06.91-.356 1.178-.66h.001c.358-.405 1.418-1.616 1.926-2.363.022.008.016.002.183.063v.003h.003c.077.027 1.044.46 1.906.87.862.41 1.737.838 2.021.979.412.203.606.335.655.335a2.24 2.24 0 01-.006.329 6.336 6.336 0 01-.357 1.553c-.106.29-.654.892-1.346 1.33-.692.437-1.534.747-1.846.792-.937.138-2.05.19-3.273-.195a33.436 33.436 0 01-3.273-1.193c-2.776-1.184-5.136-3.199-6.82-4.972a29.96 29.96 0 01-2-2.339c-.479-.623-.687-.948-.863-1.177l-.001-.002C15.897 24.61 14 21.97 14 19.593c0-2.516 1.168-3.503 1.8-4.184.333-.358.696-.41.842-.41h.001z"/></svg></svg>