<?xml version="1.0" encoding="utf-8"?><svg viewBox="0 0 32 32" xmlns="http://www.w3.org/2000/svg" xmlns:xlink="http://www.w3.org/1999/xlink"><style>:root>svg{display:none}:root>svg:target{display:block}</style><svg viewBox="0 0 12 7" id="arrow-down" xmlns="http://www.w3.org/2000/svg"><path d="M1.233 1.25L5.9 5.917l4.667-4.667"/></svg><svg viewBox="0 0 14 24" id="arrow-left" xmlns="http://www.w3.org/2000/svg"><path d="M12.332 22.667L1.665 12 12.332 1.333"/></svg><svg viewBox="0 0 10 10" id="arrow-rewies" xmlns="http://www.w3.org/2000/svg"><path d="M.278 0A.278.278 0 000 .278v5.834c0 .614.497 1.111 1.111 1.111H8.15L6.233 9.134a.278.278 0 000 .395l.395.389a.278.278 0 00.394 0l2.856-2.85A.417.417 0 0010 6.772v-.211a.428.428 0 00-.122-.295l-2.856-2.85a.278.278 0 00-.394 0l-.395.395a.272.272 0 000 .388L8.15 6.112H1.111V.278A.278.278 0 00.833 0H.278z"/></svg><svg viewBox="0 0 14 24" id="arrow-right" xmlns="http://www.w3.org/2000/svg"><path d="M1.668 1.333L12.335 12 1.668 22.667"/></svg><svg viewBox="0 0 10 8" id="check" xmlns="http://www.w3.org/2000/svg"><path d="M1 4l3 3 5-6"/></svg><svg viewBox="0 0 8 6" id="check-fff" xmlns="http://www.w3.org/2000/svg"><path d="M.667 3l2.5 2.5 4.167-5"/></svg><svg viewBox="0 0 32 32" id="corb" xmlns="http://www.w3.org/2000/svg"><path d="M6.667 9.333h18.386a2.667 2.667 0 012.653 2.932l-.8 8a2.667 2.667 0 01-2.653 2.402H11.52a2.667 2.667 0 01-2.616-2.144L6.667 9.333zM6.667 9.333L5.587 5.01A1.333 1.333 0 004.293 4H2.666M10.666 28h2.667M21.334 28H24"/></svg><svg viewBox="0 0 24 24" id="delete" xmlns="http://www.w3.org/2000/svg"><path d="M4 6h16l-1.58 14.22A2 2 0 0116.432 22H7.568a2 2 0 01-1.988-1.78L4 6zM7.345 3.147A2 2 0 019.154 2h5.692a2 2 0 011.81 1.147L18 6H6l1.345-2.853zM2 6h20M10 11v5M14 11v5"/></svg><svg viewBox="0 0 14 13" id="description" xmlns="http://www.w3.org/2000/svg"><path d="M11.358 0H1.89C.848 0 0 .848 0 1.89v6.39c0 1.042.848 1.89 1.89 1.89h.742l.014 1.669a.405.405 0 00.653.317L5.87 10.17h5.487c1.042 0 1.89-.848 1.89-1.89V1.89C13.248.848 12.4 0 11.358 0zm1.08 8.28c0 .596-.484 1.08-1.08 1.08H5.733c-.09 0-.176.03-.247.085l-2.037 1.571-.01-1.254a.405.405 0 00-.406-.402H1.89c-.596 0-1.08-.484-1.08-1.08V1.89c0-.596.484-1.08 1.08-1.08h9.468c.596 0 1.08.484 1.08 1.08v6.39z"/></svg><svg viewBox="0 0 10 10" id="exit" xmlns="http://www.w3.org/2000/svg"><path d="M9 1L1 9m8 0L1 1l8 8z"/></svg><svg viewBox="0 0 14 26" id="facebook" xmlns="http://www.w3.org/2000/svg"><path d="M11.33 4.317h2.374V.183C13.294.127 11.886 0 10.246 0 6.823 0 4.479 2.153 4.479 6.109V9.75H.703v4.621h3.776V26h4.63V14.373h3.624l.575-4.622h-4.2V6.567c.001-1.336.361-2.25 2.222-2.25z"/></svg><svg viewBox="0 0 12 12" id="gift" xmlns="http://www.w3.org/2000/svg"><path d="M11 4.5H1a.25.25 0 00-.25.25v7c0 .138.112.25.25.25h10a.25.25 0 00.25-.25v-7A.25.25 0 0011 4.5zm-.25 7h-9.5V5h9.5v6.5z"/><path d="M11.5 2.5H.5a.25.25 0 00-.25.25v2c0 .138.112.25.25.25h11a.25.25 0 00.25-.25v-2a.25.25 0 00-.25-.25zm-.25 2H.75V3h10.5v1.5z"/><path d="M6 2.5a.25.25 0 00-.25.25v9a.25.25 0 00.5 0v-9A.25.25 0 006 2.5z"/><path d="M6.255 2.691C6 1.485 4.465.192 3.444.019a1.001 1.001 0 00-.967 1.615l.004.006c.743.949 3.215 1.312 3.495 1.35a.25.25 0 00.279-.3zM2.868 1.323A.492.492 0 012.75 1a.5.5 0 01.605-.49c.75.128 1.881 1.035 2.287 1.92-.87-.161-2.34-.536-2.773-1.107z"/><path d="M8.75 0a.985.985 0 00-.187.018C7.535.192 6.002 1.485 5.745 2.69a.25.25 0 00.278.3c.28-.039 2.752-.402 3.495-1.35l.005-.007A1.001 1.001 0 008.75 0zm.396 1.305l-.015.018c-.432.571-1.902.946-2.773 1.107.407-.886 1.54-1.793 2.295-1.92a.5.5 0 01.493.796z"/></svg><svg viewBox="0 0 25 23" id="heart" xmlns="http://www.w3.org/2000/svg"><path d="M6.75 1C3.575 1 1 3.61 1 6.829c0 2.599 1.006 8.767 10.911 15.002a1.113 1.113 0 001.178 0C22.994 15.596 24 9.428 24 6.829 24 3.609 21.425 1 18.25 1S12.5 4.533 12.5 4.533 9.925 1 6.75 1z"/></svg><svg viewBox="0 0 21 24" id="play" xmlns="http://www.w3.org/2000/svg"><path d="M1 1.333v21.334L19.667 12 1 1.333z"/></svg><svg viewBox="0 0 15 15" id="search" xmlns="http://www.w3.org/2000/svg"><path d="M13.999 14l-2.991-2.996L13.998 14zm-1.334-7A5.667 5.667 0 111.332 7a5.667 5.667 0 0111.333 0z"/></svg><svg viewBox="0 0 18 18" id="star" xmlns="http://www.w3.org/2000/svg"><path d="M8.228 1.194c.267-.703 1.276-.703 1.543 0l1.725 4.779c.121.316.429.527.772.527h4.24c.783 0 1.124.975.509 1.453L14 10.667a.807.807 0 00-.268.91l1.101 4.669c.268.75-.6 1.394-1.257.932l-4.097-2.6a.833.833 0 00-.958 0l-4.098 2.6c-.656.462-1.525-.183-1.257-.932l1.102-4.67a.807.807 0 00-.268-.91L.983 7.954C.366 7.475.71 6.5 1.491 6.5h4.24a.824.824 0 00.771-.527l1.725-4.779h.001z"/></svg><svg viewBox="0 0 20 20" id="tel" xmlns="http://www.w3.org/2000/svg"><path d="M18.772 14.125c-.051-.04-3.772-2.723-4.793-2.53-.488.086-.766.419-1.326 1.084-.09.108-.306.365-.474.548a8.562 8.562 0 01-5.403-5.402c.184-.169.441-.385.551-.478.663-.556.996-.835 1.082-1.323.177-1.013-2.503-4.759-2.53-4.793A1.43 1.43 0 004.812.625C3.726.625.625 4.648.625 5.325c0 .04.057 4.042 4.992 9.063 5.016 4.93 9.018 4.987 9.057 4.987.678 0 4.701-3.101 4.701-4.188a1.427 1.427 0 00-.603-1.062z"/></svg><svg viewBox="0 0 25 21" id="twitter" xmlns="http://www.w3.org/2000/svg"><path d="M24.613 3.348c-.904.401-1.876.672-2.898.794a5.06 5.06 0 002.22-2.792 10.076 10.076 0 01-3.205 1.224 5.048 5.048 0 00-8.6 4.604A14.332 14.332 0 011.728 1.904a5.044 5.044 0 00-.683 2.537A5.048 5.048 0 003.29 8.643a5.034 5.034 0 01-2.286-.632v.065a5.048 5.048 0 004.049 4.949 5.082 5.082 0 01-2.28.086 5.05 5.05 0 004.715 3.504 10.126 10.126 0 01-6.268 2.161c-.403 0-.805-.023-1.205-.07a14.272 14.272 0 007.735 2.267c9.284 0 14.36-7.69 14.36-14.358 0-.217-.006-.436-.015-.653a10.258 10.258 0 002.516-2.61l.002-.004z"/></svg><svg viewBox="0 0 26 16" id="vk" xmlns="http://www.w3.org/2000/svg"><path fill-rule="evenodd" clip-rule="evenodd" d="M25.404 1.444c.18-.592 0-1.027-.861-1.027h-2.844c-.724 0-1.057.376-1.238.79 0 0-1.446 3.463-3.495 5.712-.663.652-.964.859-1.326.859-.18 0-.453-.207-.453-.8V1.445c0-.71-.2-1.027-.801-1.027H9.914c-.452 0-.724.33-.724.642 0 .673 1.025.829 1.13 2.723v4.114c0 .903-.166 1.066-.528 1.066-.964 0-3.31-3.478-4.701-7.459C4.82.73 4.548.417 3.82.417H.975C.162.417 0 .793 0 1.207c0 .74.964 4.41 4.49 9.264 2.351 3.315 5.66 5.112 8.676 5.112 1.808 0 2.031-.398 2.031-1.086V11.99c0-.798.171-.958.744-.958.423 0 1.145.208 2.833 1.806 1.928 1.895 2.246 2.744 3.331 2.744h2.844c.813 0 1.22-.398.986-1.187-.258-.784-1.179-1.923-2.4-3.274-.663-.769-1.657-1.598-1.96-2.013-.42-.531-.3-.769 0-1.242 0 0 3.467-4.795 3.828-6.423h.001z"/></svg></svg>