<?xml version="1.0" encoding="utf-8"?><svg viewBox="0 0 32 32" xmlns="http://www.w3.org/2000/svg" xmlns:xlink="http://www.w3.org/1999/xlink"><style>:root>svg{display:none}:root>svg:target{display:block}</style><svg viewBox="0 0 12 7" id="arrow-down" xmlns="http://www.w3.org/2000/svg"><path d="M1.233 1.25L5.9 5.917l4.667-4.667"/></svg><svg viewBox="0 0 32 32" id="corb" xmlns="http://www.w3.org/2000/svg"><path d="M6.667 9.333h18.386a2.667 2.667 0 012.653 2.932l-.8 8a2.667 2.667 0 01-2.653 2.402H11.52a2.667 2.667 0 01-2.616-2.144L6.667 9.333zM6.667 9.333L5.587 5.01A1.333 1.333 0 004.293 4H2.666M10.666 28h2.667M21.334 28H24"/></svg><svg viewBox="0 0 25 23" id="heart" xmlns="http://www.w3.org/2000/svg"><path d="M6.75 1C3.575 1 1 3.61 1 6.829c0 2.599 1.006 8.767 10.911 15.002a1.113 1.113 0 001.178 0C22.994 15.596 24 9.428 24 6.829 24 3.609 21.425 1 18.25 1S12.5 4.533 12.5 4.533 9.925 1 6.75 1z"/></svg><svg viewBox="0 0 20 20" id="tel" xmlns="http://www.w3.org/2000/svg"><path d="M18.772 14.125c-.051-.04-3.772-2.723-4.793-2.53-.488.086-.766.419-1.326 1.084-.09.108-.306.365-.474.548a8.562 8.562 0 01-5.403-5.402c.184-.169.441-.385.551-.478.663-.556.996-.835 1.082-1.323.177-1.013-2.503-4.759-2.53-4.793A1.43 1.43 0 004.812.625C3.726.625.625 4.648.625 5.325c0 .04.057 4.042 4.992 9.063 5.016 4.93 9.018 4.987 9.057 4.987.678 0 4.701-3.101 4.701-4.188a1.427 1.427 0 00-.603-1.062z"/></svg></svg>