<svg width="46" height="33" viewBox="0 0 46 33" fill="none" xmlns="http://www.w3.org/2000/svg">
<path d="M44.5519 7.00552C44.0539 6.44106 43.3145 6.11452 42.5345 6.11452H13.0228L12.7365 4.71566C12.5538 3.82239 11.8628 3.09664 10.939 2.82718L3.39851 0.627628C2.01594 0.224573 0.547194 0.951512 0.118354 2.25178C-0.310486 3.55195 0.462684 4.93286 1.84546 5.33621L7.88528 7.0979L12.4887 26.0902C12.6491 26.8935 13.2133 27.5441 13.9612 27.871C13.939 28.0398 13.9263 28.2114 13.9263 28.3858C13.9263 30.6878 15.9179 32.5605 18.3659 32.5605C20.8138 32.5605 22.8055 30.6877 22.8055 28.3858C22.8055 28.2896 22.8007 28.1947 22.7939 28.1002H29.8027C29.7959 28.1947 29.7911 28.2897 29.7911 28.3858C29.7911 30.6878 31.7828 32.5605 34.2307 32.5605C36.6788 32.5605 38.6704 30.6877 38.6704 28.3858C38.6704 28.2828 38.665 28.1811 38.6573 28.08C39.7789 27.9522 40.704 27.1567 40.917 26.0901L45.111 9.0343C45.2547 8.31357 45.0499 7.56997 44.5519 7.00552ZM18.3659 30.4188C17.1736 30.4188 16.2036 29.5067 16.2036 28.3856C16.2036 27.2644 17.1736 26.3524 18.3659 26.3524C19.5581 26.3524 20.5281 27.2644 20.5281 28.3856C20.5281 29.5067 19.5581 30.4188 18.3659 30.4188ZM34.2306 30.4188C33.0384 30.4188 32.0684 29.5067 32.0684 28.3856C32.0684 27.2644 33.0384 26.3524 34.2306 26.3524C35.4229 26.3524 36.3929 27.2644 36.3929 28.3856C36.3929 29.5067 35.4228 30.4188 34.2306 30.4188ZM35.7542 21.961H17.7897C16.9211 21.961 16.2169 21.2989 16.2169 20.4821C16.2169 19.6654 16.9211 19.0032 17.7897 19.0032H35.7542C36.6228 19.0032 37.327 19.6654 37.327 20.4821C37.327 21.2989 36.6228 21.961 35.7542 21.961ZM35.7542 14.0735H17.7897C16.9211 14.0735 16.2169 13.4113 16.2169 12.5946C16.2169 11.7778 16.9211 11.1156 17.7897 11.1156H35.7542C36.6228 11.1156 37.327 11.7778 37.327 12.5946C37.327 13.4113 36.6228 14.0735 35.7542 14.0735Z" fill="#EB8671"/>
</svg>
