<svg width="38" height="38" viewBox="0 0 38 38" fill="none" xmlns="http://www.w3.org/2000/svg">
<path d="M15.9334 0.599457C7.48323 0.599457 0.600098 7.48258 0.600098 15.9328C0.600098 24.383 7.48323 31.2661 15.9334 31.2661C19.6081 31.2661 22.9828 29.9612 25.6276 27.7952L34.7826 36.9502C34.9239 37.0974 35.0932 37.2149 35.2804 37.2958C35.4677 37.3768 35.6692 37.4195 35.8732 37.4216C36.0772 37.4237 36.2796 37.385 36.4685 37.3079C36.6573 37.2308 36.8289 37.1168 36.9732 36.9725C37.1174 36.8283 37.2314 36.6567 37.3086 36.4678C37.3857 36.2789 37.4243 36.0766 37.4222 35.8726C37.4202 35.6686 37.3774 35.4671 37.2965 35.2798C37.2155 35.0925 37.098 34.9233 36.9509 34.782L27.7958 25.6269C29.9619 22.9821 31.2668 19.6074 31.2668 15.9328C31.2668 7.48258 24.3836 0.599457 15.9334 0.599457ZM15.9334 3.66612C22.7263 3.66612 28.2001 9.13993 28.2001 15.9328C28.2001 22.7256 22.7263 28.1995 15.9334 28.1995C9.14058 28.1995 3.66676 22.7256 3.66676 15.9328C3.66676 9.13993 9.14058 3.66612 15.9334 3.66612Z" fill="#EB8671"/>
</svg>
