<svg width="18" height="18" viewBox="0 0 18 18" fill="none" xmlns="http://www.w3.org/2000/svg">
<path d="M8.22815 1.19425C8.49482 0.490915 9.50399 0.490915 9.77149 1.19425L11.4965 5.97258C11.6173 6.28925 11.9248 6.50008 12.2682 6.50008H16.5073C17.2907 6.50008 17.6323 7.47508 17.0165 7.95258L13.9998 10.6667C13.8647 10.7706 13.7659 10.9146 13.7177 11.0781C13.6695 11.2416 13.6743 11.4162 13.7315 11.5767L14.8332 16.2459C15.1015 16.9959 14.2332 17.6401 13.5765 17.1784L9.47899 14.5784C9.33866 14.4798 9.17133 14.4269 8.99982 14.4269C8.82831 14.4269 8.66098 14.4798 8.52065 14.5784L4.42315 17.1784C3.76732 17.6401 2.89815 16.9951 3.16649 16.2459L4.26815 11.5767C4.3253 11.4162 4.33012 11.2416 4.28191 11.0781C4.2337 10.9146 4.13495 10.7706 3.99982 10.6667L0.983153 7.95258C0.366486 7.47508 0.70982 6.50008 1.49149 6.50008H5.73065C5.89756 6.50064 6.06071 6.4505 6.1985 6.35631C6.33629 6.26211 6.44224 6.1283 6.50232 5.97258L8.22732 1.19425H8.22815Z" stroke="#C4CDD5" stroke-linecap="round" stroke-linejoin="round"/>
</svg>
