<svg width="38" height="38" viewBox="0 0 38 38" fill="none" xmlns="http://www.w3.org/2000/svg">
<path d="M23.6001 25.1333V22.0667C24.2901 21.7247 26.2635 19.3757 26.4705 17.5403C27.0133 17.4989 27.8658 17.0005 28.1173 15.0333C28.2522 13.9768 27.7156 13.3834 27.3905 13.1963C27.3905 13.1963 28.2001 11.6584 28.2001 9.80153C28.2001 6.0786 26.7388 2.90153 23.6001 2.90153C23.6001 2.90153 22.5099 0.601532 19.0001 0.601532C12.4957 0.601532 9.8001 4.77373 9.8001 9.80153C9.8001 11.4943 10.6097 13.1963 10.6097 13.1963C10.2846 13.3834 9.74796 13.9783 9.8829 15.0333C10.1344 17.0005 10.9869 17.4989 11.5297 17.5403C11.7367 19.3757 13.7101 21.7247 14.4001 22.0667V25.1333C12.8668 29.7333 0.600098 26.6667 0.600098 37.4H37.4001C37.4001 26.6667 25.1334 29.7333 23.6001 25.1333Z" fill="#EB8671"/>
</svg>
